<svg xmlns="http://www.w3.org/2000/svg" height="63" width="159"><rect id="backgroundrect" width="100%" height="100%" x="0" y="0" fill="none" stroke="none"/>


<g class="currentLayer" style=""><title>Layer 1</title><rect fill="#005EB8" height="63" width="159" y="0" x="0" id="svg_1" class=""/><path fill="#fff" d="m149.64385,17.180995000000003 c-2.66878,-1.259837 -6.30095,-2.374105 -11.41617,-2.374105 c-5.48135,0 -9.92696,0.8187180000000001 -9.92696,4.967005 c0,7.338463 20.08329,4.5947000000000005 20.08329,20.310021 c0,14.305504 -13.26623,18.010025 -25.27438,18.010025 c-5.33755,0 -11.4894,-1.259837 -16.01087,-2.6687730000000003 l3.26605,-10.521581 c2.742,1.77683 8.22335,2.963441 12.74482,2.963441 c4.29915,0 11.04651,-0.815189 11.04651,-6.151852 c0,-8.303632 -20.08946,-5.190211 -20.08946,-19.792147 c0,-13.339452 11.71172,-17.343934 23.05026,-17.343934 c6.3777,0 12.38134,0.6652080000000001 15.86177,2.298232 M69.080438,5.470156000000003 h13.860852 l-4.0777,19.790383 H95.245 l4.07506,-19.790383 h13.85909 l-10.74567,51.736253 h-13.861740000000001 l4.59911,-22.162723 H76.7868 l-4.59118,22.162723 H58.332122 M15.649403999999997,5.470156000000003 h17.268062 l10.601865,35.871833 h0.14645200000000003 L50.926609,5.470156000000003 H63.975804 L53.006046,57.206408999999994 H35.80856300000001 L24.987021,21.405155 H24.837923000000004 L17.650322000000003,57.206408999999994 H4.602891 " id="svg_2" class=""/></g></svg>